<svg version="1.1" viewBox="0.0 0.0 956.8477690288714 356.1732283464567" fill="none" stroke="none" stroke-linecap="square" stroke-miterlimit="10" xmlns:xlink="http://www.w3.org/1999/xlink" xmlns="http://www.w3.org/2000/svg"><clipPath id="p.0"><path d="m0 0l956.8478 0l0 356.17322l-956.8478 0l0 -356.17322z" clip-rule="nonzero"/></clipPath><g clip-path="url(#p.0)"><path fill="#000000" fill-opacity="0.0" d="m0 0l956.8478 0l0 356.17322l-956.8478 0z" fill-rule="evenodd"/><path fill="#ffffff" d="m6.96063E-4 7.097113E-4l960.0 0l0 354.99213l-960.0 0z" fill-rule="evenodd"/><path fill="#000000" d="m187.17354 166.3983c6.43779 0 11.754059 1.51474 15.948822 4.54422c4.194763 3.02948 6.9767 7.413498 8.345825 13.152054c1.3691254 5.7385406 1.2526093 12.36554 -0.3495636 19.880997c-1.6313019 7.6902313 -4.3404236 14.360916 -8.12735 20.012085c-3.7869263 5.6220245 -8.447754 10.049744 -13.982529 13.283127c-5.505615 3.2042694 -11.47731 4.8063965 -17.915115 4.8063965c-6.6125793 0 -12.001678 -1.6021271 -16.167297 -4.8063965c-4.13649 -3.2333832 -6.947571 -7.6611023 -8.433212 -13.283127c-1.4856415 -5.651169 -1.4128265 -12.321854 0.21847534 -20.012085c1.6021576 -7.515457 4.354965 -14.142456 8.258423 -19.880997c3.903473 -5.7385406 8.593445 -10.122559 14.069931 -13.152054c5.4765015 -3.02948 11.521027 -4.54422 18.13359 -4.54422zm-55.31839 -89.704834l-42.16606 198.41676l40.024994 0l4.3348083 -15.171478l0 0c2.129013 3.1513977 4.864273 5.980133 8.205765 8.486206c4.107376 3.0295105 8.928436 5.4327087 14.463181 7.2095947c5.5347443 1.8060608 11.521027 2.709076 17.958817 2.709076c12.001663 0 23.406174 -3.1751404 34.2135 -9.525391c10.836456 -6.379425 20.172714 -15.162003 28.008759 -26.347809c7.8651733 -11.185791 13.327103 -24.017395 16.385773 -38.494858c3.05867 -14.331802 3.000412 -27.090591 -0.17477417 -38.276382c-3.1752014 -11.185806 -8.870163 -19.953842 -17.0849 -26.304108c-8.214737 -6.3502655 -18.497742 -9.525391 -30.848969 -9.525391c-5.913452 0 -11.841446 0.90301514 -17.784027 2.7090607c-5.913452 1.7769012 -11.5355835 4.2383575 -16.866425 7.384369c-3.8626556 2.258438 -7.350601 4.7539215 -10.463837 7.4864807l0 0l15.008163 -70.756134z" fill-rule="evenodd"/><path fill="#000000" d="m352.68082 165.83026c5.0104065 0 9.263428 0.9904175 12.759064 2.9712372c3.5247498 1.9516907 6.11734 4.675308 7.777771 8.170868c1.6895752 3.4955597 2.243042 7.486328 1.6604309 11.97229l-0.055419922 0.2621765l-58.591827 0c1.157959 -2.5787354 2.4860535 -4.9528046 3.9842834 -7.1222076c3.6412964 -5.272476 8.214752 -9.292374 13.720367 -12.059692c5.505615 -2.7964478 11.754059 -4.1946716 18.74533 -4.1946716zm7.122345 -35.96057c-10.57428 0 -20.682495 1.8351593 -30.324615 5.5055084c-9.64212 3.6703339 -18.395752 8.86998 -26.260925 15.598938c-7.8651733 6.699814 -14.565155 14.6085205 -20.099884 23.72612c-5.5056458 9.117584 -9.423645 19.138184 -11.754089 30.061813c-3.0003967 14.157028 -2.44693 26.741043 1.6604309 37.75206c4.1073914 10.981888 11.302551 19.64798 21.58554 25.99823c10.2829895 6.350281 23.3042 9.525391 39.06369 9.525391c6.4377747 0 13.079498 -0.75735474 19.92511 -2.2720947c6.8456116 -1.51474 13.720367 -3.7868652 20.624237 -6.816345c6.933014 -3.0586243 13.691223 -7.005707 20.274658 -11.841217l-14.113617 -28.44513c-6.4377747 4.282074 -12.220154 7.326111 -17.347076 9.132156c-5.1269226 1.7769012 -10.734497 2.6653595 -16.822723 2.6653595c-8.768219 0 -15.992523 -1.6021118 -21.672913 -4.8063965c-5.6512756 -3.2333832 -9.525604 -7.7484894 -11.622986 -13.545288c-0.9557495 -2.6921387 -1.5133667 -5.6051025 -1.6729126 -8.738907l97.9339 0l2.7091064 -11.535355c2.563446 -10.399292 3.160614 -19.98294 1.7915039 -28.750977c-1.3399963 -8.768036 -4.3695374 -16.37088 -9.088654 -22.808533c-4.7190857 -6.4376526 -10.86557 -11.447968 -18.439453 -15.030914c-7.544739 -3.5829468 -16.327515 -5.37442 -26.348328 -5.37442z" fill-rule="evenodd"/><path fill="#000000" d="m546.63153 150.098l0 0c0 0 0 0 0 0l0 0l0 0zm-35.31967 15.994431c6.6125793 0 12.001678 1.572998 16.167328 4.718994c4.1655884 3.1168823 6.9766846 7.500885 8.4331665 13.152054c1.4856567 5.6511536 1.4128418 12.321854 -0.21844482 20.012085c-1.6312866 7.6902313 -4.384094 14.360916 -8.258423 20.012085c-3.8743286 5.6220245 -8.549744 9.962357 -14.026245 13.020966c-5.4765015 3.0294952 -11.521027 4.544235 -18.133606 4.544235c-6.4377747 0 -11.710358 -1.51474 -15.8177185 -4.544235c-4.107361 -3.058609 -6.9038696 -7.398941 -8.389526 -13.020966c-1.4856262 -5.651169 -1.4128113 -12.321854 0.21847534 -20.012085c1.6312866 -7.6902313 4.3841248 -14.360931 8.258453 -20.012085c3.9034424 -5.6511536 8.56427 -10.0351715 13.982513 -13.152054c5.4182434 -3.145996 11.346252 -4.718994 17.784027 -4.718994zm-2.7965088 -36.222748c-12.351227 0 -24.03247 3.1751251 -35.0437 9.525391c-11.011261 6.3502655 -20.478577 15.0746155 -28.402008 26.17302c-7.8943176 11.098404 -13.385376 23.900894 -16.473175 38.40747c-3.0004272 14.127899 -2.913025 26.784729 0.2621765 37.970535c3.1752014 11.185791 8.782776 19.953827 16.822723 26.304077c8.0399475 6.350281 18.046204 9.525421 30.018738 9.525421c6.466919 0 12.773621 -0.9758606 18.920105 -2.9275513c6.1464844 -1.9808044 11.899719 -4.660736 17.259705 -8.039764c3.9647522 -2.5073853 7.598419 -5.3064575 10.900909 -8.397217l0 0l-3.6037598 16.961334l43.52057 0l30.280945 -142.5315l-42.69043 0l-3.6566162 17.257095l0 0c-1.8607788 -3.351654 -4.166687 -6.3803864 -6.9176636 -9.086227c-3.553894 -3.4955597 -7.9379883 -6.2191772 -13.152283 -8.170868c-5.2143555 -1.9808197 -11.229736 -2.971222 -18.046234 -2.971222zm170.4949 0c-7.3408813 0 -14.681702 1.0341034 -22.022522 3.1023102c-7.3117065 2.0390778 -14.0407715 5.0394287 -20.187256 9.001068c-6.1173706 3.932495 -11.317139 8.578674 -15.599304 13.938538c-4.2529907 5.3598633 -7.0786133 11.36058 -8.476868 18.002136c-1.2235107 5.709427 -1.3400269 10.850815 -0.34954834 15.424164c0.9904175 4.5733643 2.88385 8.738907 5.680359 12.496628c3.0878296 3.9325104 7.399109 7.369812 12.933838 10.311905c5.563904 2.9421082 12.322144 5.490967 20.274658 7.6465454c5.5930176 1.6021271 10.122803 3.0440369 13.589294 4.32576c3.4956665 1.2525635 5.9571533 2.3158112 7.3845215 3.1896973c2.7965088 1.9808197 3.816101 4.7626953 3.0587158 8.345642c-0.37872314 1.7769165 -1.0632935 3.3353424 -2.053711 4.6753235c-0.9904175 1.3399506 -2.2721558 2.505127 -3.8452148 3.4955597c-1.572998 0.9904022 -3.4082031 1.7623291 -5.505615 2.3158112c-2.0682373 0.5243225 -4.3549805 0.786499 -6.8601685 0.786499c-6.2630005 0 -12.613403 -1.2962646 -19.051208 -3.8888092c-6.4086304 -2.5925598 -11.783203 -6.6707153 -16.123596 -12.234467l-30.848938 22.546371c4.6608276 7.515442 11.841431 13.516174 21.54181 18.002136c9.700378 4.456848 21.527283 6.6852417 35.48065 6.6852417c11.448242 0 22.08081 -2.0099182 31.897705 -6.0298157c9.816895 -4.0198975 18.017029 -9.554535 24.600464 -16.603928c6.61261 -7.0785065 10.894775 -15.191116 12.846497 -24.337845c0.9904175 -4.660736 1.1942749 -9.001068 0.61169434 -13.020966c-0.58258057 -4.019882 -1.9954224 -7.544571 -4.2384644 -10.574066c-2.7382202 -3.9616241 -6.845581 -7.3697968 -12.3220825 -10.224518c-5.4473267 -2.8547058 -12.132751 -5.447235 -20.056213 -7.7776184c-6.4086304 -1.9808197 -11.433594 -3.6412048 -15.07489 -4.9811707c-3.6412964 -1.3399658 -6.2338867 -2.5488586 -7.777771 -3.626648c-1.5730591 -1.0778046 -2.6799927 -2.4177704 -3.3208618 -4.0198975c-0.64086914 -1.6021271 -0.77197266 -3.3062134 -0.3932495 -5.112259c0.3786621 -1.7769165 1.0632324 -3.3353424 2.05365 -4.675308c1.0195923 -1.3399658 2.3450317 -2.5051575 3.9763184 -3.4955597c1.6312866 -0.9904175 3.5247803 -1.7040863 5.68042 -2.141037c2.1556396 -0.43693542 4.5734253 -0.65541077 7.253418 -0.65541077c3.5830078 0 7.369934 0.7136688 11.360779 2.141037c3.9908447 1.4273529 7.734131 3.3499146 11.229736 5.7676697c3.5247803 2.4177551 6.5688477 5.1413727 9.132324 8.170868l27.921387 -25.211731c-3.8452148 -4.485977 -8.52063 -8.331085 -14.026245 -11.535355c-5.4765015 -3.2333832 -11.608398 -5.7385406 -18.395752 -7.515442c-6.7873535 -1.8060455 -14.113586 -2.7090607 -21.97876 -2.7090607z" fill-rule="evenodd"/><path fill="#000000" d="m783.19226 96.83663l-7.6486816 36.00428l-25.253967 0l-7.9525757 37.57727l25.223755 0l-22.296143 104.95422l42.952576 0l22.296143 -104.95422l27.647705 0l7.9525757 -37.57727l-27.617493 0l7.6486816 -36.00428zm81.942444 133.44302c-6.7872925 0 -12.802734 2.2429962 -18.046204 6.728958c-5.243408 4.456833 -8.622498 10.268204 -10.137329 17.434113c-1.6312866 7.6902313 -0.87390137 13.603561 2.2721558 17.739975c3.175232 4.1072693 8.418701 6.160919 15.730347 6.160919c6.991272 0 13.108643 -2.242981 18.352112 -6.728943c5.243408 -4.485962 8.607971 -10.209961 10.093628 -17.171951c1.6312866 -7.6902313 0.8302002 -13.63269 -2.4032593 -17.827362c-3.2334595 -4.2238007 -8.520569 -6.3357086 -15.86145 -6.3357086z" fill-rule="evenodd"/><path stroke="#000000" stroke-width="1.0" stroke-linejoin="round" stroke-linecap="butt" d="m187.17354 166.3983c6.43779 0 11.754059 1.51474 15.948822 4.54422c4.194763 3.02948 6.9767 7.413498 8.345825 13.152054c1.3691254 5.7385406 1.2526093 12.36554 -0.3495636 19.880997c-1.6313019 7.6902313 -4.3404236 14.360916 -8.12735 20.012085c-3.7869263 5.6220245 -8.447754 10.049744 -13.982529 13.283127c-5.505615 3.2042694 -11.47731 4.8063965 -17.915115 4.8063965c-6.6125793 0 -12.001678 -1.6021271 -16.167297 -4.8063965c-4.13649 -3.2333832 -6.947571 -7.6611023 -8.433212 -13.283127c-1.4856415 -5.651169 -1.4128265 -12.321854 0.21847534 -20.012085c1.6021576 -7.515457 4.354965 -14.142456 8.258423 -19.880997c3.903473 -5.7385406 8.593445 -10.122559 14.069931 -13.152054c5.4765015 -3.02948 11.521027 -4.54422 18.13359 -4.54422zm-55.31839 -89.704834l-42.16606 198.41676l40.024994 0l4.3348083 -15.171478l0 0c2.129013 3.1513977 4.864273 5.980133 8.205765 8.486206c4.107376 3.0295105 8.928436 5.4327087 14.463181 7.2095947c5.5347443 1.8060608 11.521027 2.709076 17.958817 2.709076c12.001663 0 23.406174 -3.1751404 34.2135 -9.525391c10.836456 -6.379425 20.172714 -15.162003 28.008759 -26.347809c7.8651733 -11.185791 13.327103 -24.017395 16.385773 -38.494858c3.05867 -14.331802 3.000412 -27.090591 -0.17477417 -38.276382c-3.1752014 -11.185806 -8.870163 -19.953842 -17.0849 -26.304108c-8.214737 -6.3502655 -18.497742 -9.525391 -30.848969 -9.525391c-5.913452 0 -11.841446 0.90301514 -17.784027 2.7090607c-5.913452 1.7769012 -11.5355835 4.2383575 -16.866425 7.384369c-3.8626556 2.258438 -7.350601 4.7539215 -10.463837 7.4864807l0 0l15.008163 -70.756134z" fill-rule="evenodd"/><path stroke="#000000" stroke-width="1.0" stroke-linejoin="round" stroke-linecap="butt" d="m352.68082 165.83026c5.0104065 0 9.263428 0.9904175 12.759064 2.9712372c3.5247498 1.9516907 6.11734 4.675308 7.777771 8.170868c1.6895752 3.4955597 2.243042 7.486328 1.6604309 11.97229l-0.055419922 0.2621765l-58.591827 0c1.157959 -2.5787354 2.4860535 -4.9528046 3.9842834 -7.1222076c3.6412964 -5.272476 8.214752 -9.292374 13.720367 -12.059692c5.505615 -2.7964478 11.754059 -4.1946716 18.74533 -4.1946716zm7.122345 -35.96057c-10.57428 0 -20.682495 1.8351593 -30.324615 5.5055084c-9.64212 3.6703339 -18.395752 8.86998 -26.260925 15.598938c-7.8651733 6.699814 -14.565155 14.6085205 -20.099884 23.72612c-5.5056458 9.117584 -9.423645 19.138184 -11.754089 30.061813c-3.0003967 14.157028 -2.44693 26.741043 1.6604309 37.75206c4.1073914 10.981888 11.302551 19.64798 21.58554 25.99823c10.2829895 6.350281 23.3042 9.525391 39.06369 9.525391c6.4377747 0 13.079498 -0.75735474 19.92511 -2.2720947c6.8456116 -1.51474 13.720367 -3.7868652 20.624237 -6.816345c6.933014 -3.0586243 13.691223 -7.005707 20.274658 -11.841217l-14.113617 -28.44513c-6.4377747 4.282074 -12.220154 7.326111 -17.347076 9.132156c-5.1269226 1.7769012 -10.734497 2.6653595 -16.822723 2.6653595c-8.768219 0 -15.992523 -1.6021118 -21.672913 -4.8063965c-5.6512756 -3.2333832 -9.525604 -7.7484894 -11.622986 -13.545288c-0.9557495 -2.6921387 -1.5133667 -5.6051025 -1.6729126 -8.738907l97.9339 0l2.7091064 -11.535355c2.563446 -10.399292 3.160614 -19.98294 1.7915039 -28.750977c-1.3399963 -8.768036 -4.3695374 -16.37088 -9.088654 -22.808533c-4.7190857 -6.4376526 -10.86557 -11.447968 -18.439453 -15.030914c-7.544739 -3.5829468 -16.327515 -5.37442 -26.348328 -5.37442z" fill-rule="evenodd"/><path stroke="#000000" stroke-width="1.0" stroke-linejoin="round" stroke-linecap="butt" d="m546.63153 150.098l0 0c0 0 0 0 0 0l0 0l0 0zm-35.31967 15.994431c6.6125793 0 12.001678 1.572998 16.167328 4.718994c4.1655884 3.1168823 6.9766846 7.500885 8.4331665 13.152054c1.4856567 5.6511536 1.4128418 12.321854 -0.21844482 20.012085c-1.6312866 7.6902313 -4.384094 14.360916 -8.258423 20.012085c-3.8743286 5.6220245 -8.549744 9.962357 -14.026245 13.020966c-5.4765015 3.0294952 -11.521027 4.544235 -18.133606 4.544235c-6.4377747 0 -11.710358 -1.51474 -15.8177185 -4.544235c-4.107361 -3.058609 -6.9038696 -7.398941 -8.389526 -13.020966c-1.4856262 -5.651169 -1.4128113 -12.321854 0.21847534 -20.012085c1.6312866 -7.6902313 4.3841248 -14.360931 8.258453 -20.012085c3.9034424 -5.6511536 8.56427 -10.0351715 13.982513 -13.152054c5.4182434 -3.145996 11.346252 -4.718994 17.784027 -4.718994zm-2.7965088 -36.222748c-12.351227 0 -24.03247 3.1751251 -35.0437 9.525391c-11.011261 6.3502655 -20.478577 15.0746155 -28.402008 26.17302c-7.8943176 11.098404 -13.385376 23.900894 -16.473175 38.40747c-3.0004272 14.127899 -2.913025 26.784729 0.2621765 37.970535c3.1752014 11.185791 8.782776 19.953827 16.822723 26.304077c8.0399475 6.350281 18.046204 9.525421 30.018738 9.525421c6.466919 0 12.773621 -0.9758606 18.920105 -2.9275513c6.1464844 -1.9808044 11.899719 -4.660736 17.259705 -8.039764c3.9647522 -2.5073853 7.598419 -5.3064575 10.900909 -8.397217l0 0l-3.6037598 16.961334l43.52057 0l30.280945 -142.5315l-42.69043 0l-3.6566162 17.257095l0 0c-1.8607788 -3.351654 -4.166687 -6.3803864 -6.9176636 -9.086227c-3.553894 -3.4955597 -7.9379883 -6.2191772 -13.152283 -8.170868c-5.2143555 -1.9808197 -11.229736 -2.971222 -18.046234 -2.971222zm170.4949 0c-7.3408813 0 -14.681702 1.0341034 -22.022522 3.1023102c-7.3117065 2.0390778 -14.0407715 5.0394287 -20.187256 9.001068c-6.1173706 3.932495 -11.317139 8.578674 -15.599304 13.938538c-4.2529907 5.3598633 -7.0786133 11.36058 -8.476868 18.002136c-1.2235107 5.709427 -1.3400269 10.850815 -0.34954834 15.424164c0.9904175 4.5733643 2.88385 8.738907 5.680359 12.496628c3.0878296 3.9325104 7.399109 7.369812 12.933838 10.311905c5.563904 2.9421082 12.322144 5.490967 20.274658 7.6465454c5.5930176 1.6021271 10.122803 3.0440369 13.589294 4.32576c3.4956665 1.2525635 5.9571533 2.3158112 7.3845215 3.1896973c2.7965088 1.9808197 3.816101 4.7626953 3.0587158 8.345642c-0.37872314 1.7769165 -1.0632935 3.3353424 -2.053711 4.6753235c-0.9904175 1.3399506 -2.2721558 2.505127 -3.8452148 3.4955597c-1.572998 0.9904022 -3.4082031 1.7623291 -5.505615 2.3158112c-2.0682373 0.5243225 -4.3549805 0.786499 -6.8601685 0.786499c-6.2630005 0 -12.613403 -1.2962646 -19.051208 -3.8888092c-6.4086304 -2.5925598 -11.783203 -6.6707153 -16.123596 -12.234467l-30.848938 22.546371c4.6608276 7.515442 11.841431 13.516174 21.54181 18.002136c9.700378 4.456848 21.527283 6.6852417 35.48065 6.6852417c11.448242 0 22.08081 -2.0099182 31.897705 -6.0298157c9.816895 -4.0198975 18.017029 -9.554535 24.600464 -16.603928c6.61261 -7.0785065 10.894775 -15.191116 12.846497 -24.337845c0.9904175 -4.660736 1.1942749 -9.001068 0.61169434 -13.020966c-0.58258057 -4.019882 -1.9954224 -7.544571 -4.2384644 -10.574066c-2.7382202 -3.9616241 -6.845581 -7.3697968 -12.3220825 -10.224518c-5.4473267 -2.8547058 -12.132751 -5.447235 -20.056213 -7.7776184c-6.4086304 -1.9808197 -11.433594 -3.6412048 -15.07489 -4.9811707c-3.6412964 -1.3399658 -6.2338867 -2.5488586 -7.777771 -3.626648c-1.5730591 -1.0778046 -2.6799927 -2.4177704 -3.3208618 -4.0198975c-0.64086914 -1.6021271 -0.77197266 -3.3062134 -0.3932495 -5.112259c0.3786621 -1.7769165 1.0632324 -3.3353424 2.05365 -4.675308c1.0195923 -1.3399658 2.3450317 -2.5051575 3.9763184 -3.4955597c1.6312866 -0.9904175 3.5247803 -1.7040863 5.68042 -2.141037c2.1556396 -0.43693542 4.5734253 -0.65541077 7.253418 -0.65541077c3.5830078 0 7.369934 0.7136688 11.360779 2.141037c3.9908447 1.4273529 7.734131 3.3499146 11.229736 5.7676697c3.5247803 2.4177551 6.5688477 5.1413727 9.132324 8.170868l27.921387 -25.211731c-3.8452148 -4.485977 -8.52063 -8.331085 -14.026245 -11.535355c-5.4765015 -3.2333832 -11.608398 -5.7385406 -18.395752 -7.515442c-6.7873535 -1.8060455 -14.113586 -2.7090607 -21.97876 -2.7090607z" fill-rule="evenodd"/><path stroke="#000000" stroke-width="1.0" stroke-linejoin="round" stroke-linecap="butt" d="m783.19226 96.83663l-7.6486816 36.00428l-25.253967 0l-7.9525757 37.57727l25.223755 0l-22.296143 104.95422l42.952576 0l22.296143 -104.95422l27.647705 0l7.9525757 -37.57727l-27.617493 0l7.6486816 -36.00428zm81.942444 133.44302c-6.7872925 0 -12.802734 2.2429962 -18.046204 6.728958c-5.243408 4.456833 -8.622498 10.268204 -10.137329 17.434113c-1.6312866 7.6902313 -0.87390137 13.603561 2.2721558 17.739975c3.175232 4.1072693 8.418701 6.160919 15.730347 6.160919c6.991272 0 13.108643 -2.242981 18.352112 -6.728943c5.243408 -4.485962 8.607971 -10.209961 10.093628 -17.171951c1.6312866 -7.6902313 0.8302002 -13.63269 -2.4032593 -17.827362c-3.2334595 -4.2238007 -8.520569 -6.3357086 -15.86145 -6.3357086z" fill-rule="evenodd"/></g></svg>