<svg version="1.1" viewBox="0.0 0.0 399.15748031496065 222.31496062992127" fill="none" stroke="none" stroke-linecap="square" stroke-miterlimit="10" xmlns:xlink="http://www.w3.org/1999/xlink" xmlns="http://www.w3.org/2000/svg"><clipPath id="p.0"><path d="m0 0l399.15747 0l0 222.31496l-399.15747 0l0 -222.31496z" clip-rule="nonzero"/></clipPath><g clip-path="url(#p.0)"><path fill="#000000" fill-opacity="0.0" d="m0 0l399.15747 0l0 222.31496l-399.15747 0z" fill-rule="evenodd"/><path fill="#000000" d="m3.9895014E-5 14.368807l399.14963 0l0 147.59056l-399.14963 0z" fill-rule="evenodd"/><path stroke="#000000" stroke-width="1.0" stroke-linejoin="round" stroke-linecap="butt" d="m3.9895014E-5 14.368807l399.14963 0l0 147.59056l-399.14963 0z" fill-rule="evenodd"/><path fill="#000000" d="m232.67395 173.03415c-2.031662 0 -3.6597443 0.41044617 -4.884247 1.2313538c-1.2245026 0.8163147 -2.1119232 1.9651031 -2.662262 3.4463959c-0.5503235 1.4766998 -0.8255005 3.2423248 -0.8255005 5.2968597l0 1.183197l4.52652 0l0 -1.141922c0 -1.0960541 0.11236572 -2.1233215 0.3370819 -3.0818024c0.22473145 -0.95848083 0.6328888 -1.7335205 1.2245026 -2.325119c0.59161377 -0.5915985 1.4217072 -0.8874054 2.4902802 -0.8874054c1.2703552 0 2.1577759 0.45173645 2.6622467 1.3551788c0.5090637 0.89886475 0.7635956 2.137085 0.7635956 3.714676c0 1.27034 -0.1765747 2.3916168 -0.5296936 3.363861c-0.35313416 0.972229 -0.8048706 1.8963165 -1.3552094 2.7722473c-0.54574585 0.87135315 -1.1419525 1.8137817 -1.7885895 2.8272858l-8.709091 13.565475l0 3.2125092l16.145508 0l0 -3.8041077l-10.820999 0l7.8629456 -12.003937c0.6741638 -1.013504 1.2932892 -1.9994965 1.8573914 -2.9579773c0.5640869 -0.95848083 1.0227051 -1.9857483 1.3758392 -3.0818176c0.35313416 -1.100647 0.5296936 -2.384735 0.5296936 -3.8522644c0 -2.760788 -0.67645264 -4.9230957 -2.029358 -6.4869385c-1.3529205 -1.5638275 -3.4098053 -2.345749 -6.1706543 -2.345749z" fill-rule="evenodd"/><path fill="#000000" d="m253.33794 176.71443c1.1006775 0 1.926178 0.29580688 2.4765167 0.8874054c0.5503235 0.5915985 0.9241028 1.3735199 1.1213074 2.345749c0.19720459 0.97224426 0.29580688 2.0063934 0.29580688 3.1024475l0 14.838089c0 1.0410309 -0.10775757 2.0476685 -0.32333374 3.0198975c-0.2109375 0.97224426 -0.59161377 1.7702179 -1.1419373 2.393921c-0.54574585 0.6191101 -1.3552094 0.92866516 -2.42836 0.92866516c-1.0410461 0 -1.8505096 -0.30955505 -2.42836 -0.92866516c-0.57785034 -0.623703 -0.9722595 -1.4216766 -1.1832275 -2.393921c-0.21096802 -0.972229 -0.31643677 -1.9788666 -0.31643677 -3.0198975l0 -14.838089c0 -1.0960541 0.098587036 -2.1302032 0.29580688 -3.1024475c0.19720459 -0.972229 0.57785034 -1.7541504 1.1419373 -2.345749c0.5641022 -0.5915985 1.3941956 -0.8874054 2.4902802 -0.8874054zm0 -3.6802826c-1.9720459 0 -3.5863647 0.4242096 -4.842972 1.2726288c-1.2520142 0.8438263 -2.1738281 2.0201416 -2.765442 3.528946c-0.59161377 1.5042114 -0.88742065 3.258377 -0.88742065 5.2624664l0 14.748657c0 1.9444885 0.3026886 3.6779938 0.9080658 5.2005615c0.60995483 1.5179749 1.5409393 2.7149353 2.7929535 3.590866c1.2520142 0.8713379 2.850296 1.3070068 4.794815 1.3070068c1.944519 0 3.535904 -0.42878723 4.774185 -1.286377c1.2428284 -0.8575897 2.1669312 -2.0476532 2.7723083 -3.570221c0.6053772 -1.5225677 0.90805054 -3.2698364 0.90805054 -5.2418365l0 -14.748657c0 -2.0040894 -0.29580688 -3.758255 -0.88742065 -5.2624664c-0.59161377 -1.5088043 -1.5088196 -2.6851196 -2.7516785 -3.528946c-1.2382507 -0.8484192 -2.843399 -1.2726288 -4.815445 -1.2726288z" fill-rule="evenodd"/><path fill="#000000" d="m274.7285 173.03415c-2.0316772 0 -3.6597595 0.41044617 -4.884247 1.2313538c-1.2244873 0.8163147 -2.111908 1.9651031 -2.662262 3.4463959c-0.5503235 1.4766998 -0.8255005 3.2423248 -0.8255005 5.2968597l0 1.183197l4.52652 0l0 -1.141922c0 -1.0960541 0.11236572 -2.1233215 0.33709717 -3.0818024c0.22470093 -0.95848083 0.63287354 -1.7335205 1.2244873 -2.325119c0.59161377 -0.5915985 1.4216919 -0.8874054 2.490265 -0.8874054c1.2703552 0 2.1577759 0.45173645 2.662262 1.3551788c0.5090637 0.89886475 0.7635803 2.137085 0.7635803 3.714676c0 1.27034 -0.17654419 2.3916168 -0.5296936 3.363861c-0.3531189 0.972229 -0.8048706 1.8963165 -1.3551941 2.7722473c-0.54574585 0.87135315 -1.1419373 1.8137817 -1.7886047 2.8272858l-8.709076 13.565475l0 3.2125092l16.145508 0l0 -3.8041077l-10.820984 0l7.862915 -12.003937c0.6741638 -1.013504 1.2933044 -1.9994965 1.8573914 -2.9579773c0.56411743 -0.95848083 1.0227051 -1.9857483 1.3758545 -3.0818176c0.3531189 -1.100647 0.5296936 -2.384735 0.5296936 -3.8522644c0 -2.760788 -0.67645264 -4.9230957 -2.029358 -6.4869385c-1.3529053 -1.5638275 -3.40979 -2.345749 -6.1706543 -2.345749z" fill-rule="evenodd"/><path fill="#000000" d="m294.54633 173.03415c-1.8573914 0 -3.4143677 0.3531189 -4.67099 1.059372c-1.2520142 0.70625305 -2.1875916 1.7082977 -2.8067017 3.0061493c-0.6191406 1.2932587 -0.92871094 2.8547974 -0.92871094 4.684616l0 1.141922l4.478363 0c0 -0.11463928 0 -0.23388672 0 -0.3577118c0 -0.12840271 0 -0.24763489 0 -0.35769653c0.05505371 -1.6096954 0.33480835 -2.9281921 0.8392639 -3.9554596c0.5090637 -1.0272675 1.5386658 -1.5409088 3.0887756 -1.5409088c1.5501099 0 2.5865784 0.46548462 3.1094055 1.3964539c0.52282715 0.92637634 0.7842407 2.1645966 0.7842407 3.714676c0 1.8344116 -0.3531494 3.1460266 -1.0594177 3.9348145c-0.7062683 0.7888031 -1.861969 1.2107086 -3.467102 1.2657471l-0.59161377 0l0 4.5195312l0.31643677 0c0.12841797 0 0.23388672 0.016052246 0.31643677 0.04815674c1.6647644 0.110061646 2.827362 0.73605347 3.4877625 1.8779755c0.664978 1.141922 0.99749756 2.614029 0.99749756 4.416336c0 1.2382355 -0.098602295 2.3365784 -0.29580688 3.2950592c-0.19720459 0.95848083 -0.57785034 1.6991272 -1.1419678 2.221939c-0.5640869 0.518219 -1.3964844 0.7773285 -2.4971619 0.7773285c-1.0410461 0 -1.836731 -0.23846436 -2.387085 -0.7154236c-0.5503235 -0.47694397 -0.93096924 -1.1235657 -1.1419373 -1.9398804c-0.21096802 -0.8209076 -0.3302002 -1.7381134 -0.35772705 -2.7516174c0 -0.14216614 0 -0.27516174 0 -0.39898682c0 -0.12840271 0 -0.24993896 0 -0.3645935l-4.478363 0l0 1.141922c0 1.8069 0.3095703 3.3730164 0.92871094 4.698395c0.6191101 1.3207703 1.547821 2.3342896 2.7860718 3.0405273c1.2428284 0.70166016 2.7929688 1.0524902 4.6503296 1.0524902c2.0316772 0 3.666626 -0.41503906 4.904907 -1.2451019c1.2382507 -0.83006287 2.1394348 -1.9995117 2.7035217 -3.508316c0.5640869 -1.5088043 0.8461304 -3.2767181 0.8461304 -5.3037415c0 -1.5500793 -0.19720459 -2.9098358 -0.59161377 -4.0792694c-0.39440918 -1.1694336 -0.95162964 -2.1347961 -1.6716309 -2.8960724c-0.7154541 -0.76127625 -1.5959778 -1.2955475 -2.641632 -1.6028137c1.4950867 -0.45402527 2.6851807 -1.3001404 3.5703125 -2.5383759c0.8897095 -1.2382202 1.3345642 -2.8869019 1.3345642 -4.9460297c0 -1.8298187 -0.3095703 -3.3982391 -0.9286804 -4.705261c-0.6191406 -1.3115997 -1.5501099 -2.3205261 -2.7929688 -3.0267792c-1.2382507 -0.70625305 -2.802124 -1.059372 -4.69162 -1.059372z" fill-rule="evenodd"/><path fill="#000000" d="m306.30075 193.57497l0 3.425766l9.4244995 0l0 -3.425766z" fill-rule="evenodd"/><path fill="#000000" d="m327.89893 173.03415c-2.0316467 0 -3.659729 0.41044617 -4.884247 1.2313538c-1.2244873 0.8163147 -2.111908 1.9651031 -2.6622314 3.4463959c-0.550354 1.4766998 -0.825531 3.2423248 -0.825531 5.2968597l0 1.183197l4.52652 0l0 -1.141922c0 -1.0960541 0.11236572 -2.1233215 0.33709717 -3.0818024c0.22473145 -0.95848083 0.63287354 -1.7335205 1.2244873 -2.325119c0.59161377 -0.5915985 1.4217224 -0.8874054 2.4902954 -0.8874054c1.2703552 0 2.1577759 0.45173645 2.6622314 1.3551788c0.5090637 0.89886475 0.76361084 2.137085 0.76361084 3.714676c0 1.27034 -0.1765747 2.3916168 -0.5296936 3.363861c-0.3531494 0.972229 -0.8048706 1.8963165 -1.3552246 2.7722473c-0.54574585 0.87135315 -1.1419373 1.8137817 -1.7885742 2.8272858l-8.709106 13.565475l0 3.2125092l16.145538 0l0 -3.8041077l-10.821014 0l7.8629456 -12.003937c0.6741638 -1.013504 1.2932739 -1.9994965 1.8573914 -2.9579773c0.5640869 -0.95848083 1.0227051 -1.9857483 1.375824 -3.0818176c0.3531494 -1.100647 0.5296936 -2.384735 0.5296936 -3.8522644c0 -2.760788 -0.67645264 -4.9230957 -2.029358 -6.4869385c-1.3529053 -1.5638275 -3.40979 -2.345749 -6.1706543 -2.345749z" fill-rule="evenodd"/><path fill="#000000" d="m348.56293 176.71443c1.1006775 0 1.926178 0.29580688 2.476532 0.8874054c0.5503235 0.5915985 0.9241028 1.3735199 1.1213074 2.345749c0.19720459 0.97224426 0.29580688 2.0063934 0.29580688 3.1024475l0 14.838089c0 1.0410309 -0.107788086 2.0476685 -0.32333374 3.0198975c-0.21096802 0.97224426 -0.59161377 1.7702179 -1.1419373 2.393921c-0.54577637 0.6191101 -1.3552246 0.92866516 -2.4283752 0.92866516c-1.0410461 0 -1.8504944 -0.30955505 -2.4283752 -0.92866516c-0.57785034 -0.623703 -0.9722595 -1.4216766 -1.183197 -2.393921c-0.21096802 -0.972229 -0.3164673 -1.9788666 -0.3164673 -3.0198975l0 -14.838089c0 -1.0960541 0.098602295 -2.1302032 0.29580688 -3.1024475c0.19720459 -0.972229 0.57785034 -1.7541504 1.1419678 -2.345749c0.5640869 -0.5915985 1.394165 -0.8874054 2.490265 -0.8874054zm0 -3.6802826c-1.9720459 0 -3.5863647 0.4242096 -4.8429565 1.2726288c-1.2520142 0.8438263 -2.1738281 2.0201416 -2.765442 3.528946c-0.59161377 1.5042114 -0.88742065 3.258377 -0.88742065 5.2624664l0 14.748657c0 1.9444885 0.30267334 3.6779938 0.90805054 5.2005615c0.60995483 1.5179749 1.5409546 2.7149353 2.7929688 3.590866c1.2520142 0.8713379 2.8502808 1.3070068 4.7948 1.3070068c1.944519 0 3.5359192 -0.42878723 4.77417 -1.286377c1.2428589 -0.8575897 2.1669617 -2.0476532 2.7723389 -3.570221c0.6053467 -1.5225677 0.90805054 -3.2698364 0.90805054 -5.2418365l0 -14.748657c0 -2.0040894 -0.29580688 -3.758255 -0.88742065 -5.2624664c-0.59161377 -1.5088043 -1.5088501 -2.6851196 -2.7516785 -3.528946c-1.2382812 -0.8484192 -2.8434143 -1.2726288 -4.81546 -1.2726288z" fill-rule="evenodd"/><path fill="#000000" d="m369.95346 173.03415c-2.0316467 0 -3.659729 0.41044617 -4.884247 1.2313538c-1.2244873 0.8163147 -2.111908 1.9651031 -2.6622314 3.4463959c-0.550354 1.4766998 -0.825531 3.2423248 -0.825531 5.2968597l0 1.183197l4.52652 0l0 -1.141922c0 -1.0960541 0.11236572 -2.1233215 0.33709717 -3.0818024c0.22473145 -0.95848083 0.63287354 -1.7335205 1.2244873 -2.325119c0.59161377 -0.5915985 1.4217224 -0.8874054 2.4902954 -0.8874054c1.2703552 0 2.1577759 0.45173645 2.6622314 1.3551788c0.5090637 0.89886475 0.76361084 2.137085 0.76361084 3.714676c0 1.27034 -0.1765747 2.3916168 -0.5296936 3.363861c-0.3531494 0.972229 -0.8048706 1.8963165 -1.3552246 2.7722473c-0.54574585 0.87135315 -1.1419373 1.8137817 -1.7885742 2.8272858l-8.709106 13.565475l0 3.2125092l16.145508 0l0 -3.8041077l-10.820984 0l7.8629456 -12.003937c0.6741638 -1.013504 1.2932739 -1.9994965 1.8573914 -2.9579773c0.5640869 -0.95848083 1.0227051 -1.9857483 1.375824 -3.0818176c0.3531494 -1.100647 0.5296936 -2.384735 0.5296936 -3.8522644c0 -2.760788 -0.67645264 -4.9230957 -2.029358 -6.4869385c-1.3529053 -1.5638275 -3.40979 -2.345749 -6.1706543 -2.345749z" fill-rule="evenodd"/><path fill="#000000" d="m391.00266 178.82631l0 15.553513l-5.5790405 0l5.5790405 -15.553513zm-1.0181274 -5.496353l-8.915466 20.334442l0 4.732773l9.933594 0l0 9.169769l4.306366 0l0 -9.169769l3.8454895 0l0 -4.0173492l-3.8454895 0l0 -21.049866z" fill-rule="evenodd"/><path stroke="#000000" stroke-width="1.0" stroke-linejoin="round" stroke-linecap="butt" d="m232.67395 173.03415c-2.031662 0 -3.6597443 0.41044617 -4.884247 1.2313538c-1.2245026 0.8163147 -2.1119232 1.9651031 -2.662262 3.4463959c-0.5503235 1.4766998 -0.8255005 3.2423248 -0.8255005 5.2968597l0 1.183197l4.52652 0l0 -1.141922c0 -1.0960541 0.11236572 -2.1233215 0.3370819 -3.0818024c0.22473145 -0.95848083 0.6328888 -1.7335205 1.2245026 -2.325119c0.59161377 -0.5915985 1.4217072 -0.8874054 2.4902802 -0.8874054c1.2703552 0 2.1577759 0.45173645 2.6622467 1.3551788c0.5090637 0.89886475 0.7635956 2.137085 0.7635956 3.714676c0 1.27034 -0.1765747 2.3916168 -0.5296936 3.363861c-0.35313416 0.972229 -0.8048706 1.8963165 -1.3552094 2.7722473c-0.54574585 0.87135315 -1.1419525 1.8137817 -1.7885895 2.8272858l-8.709091 13.565475l0 3.2125092l16.145508 0l0 -3.8041077l-10.820999 0l7.8629456 -12.003937c0.6741638 -1.013504 1.2932892 -1.9994965 1.8573914 -2.9579773c0.5640869 -0.95848083 1.0227051 -1.9857483 1.3758392 -3.0818176c0.35313416 -1.100647 0.5296936 -2.384735 0.5296936 -3.8522644c0 -2.760788 -0.67645264 -4.9230957 -2.029358 -6.4869385c-1.3529205 -1.5638275 -3.4098053 -2.345749 -6.1706543 -2.345749z" fill-rule="evenodd"/><path stroke="#000000" stroke-width="1.0" stroke-linejoin="round" stroke-linecap="butt" d="m253.33794 176.71443c1.1006775 0 1.926178 0.29580688 2.4765167 0.8874054c0.5503235 0.5915985 0.9241028 1.3735199 1.1213074 2.345749c0.19720459 0.97224426 0.29580688 2.0063934 0.29580688 3.1024475l0 14.838089c0 1.0410309 -0.10775757 2.0476685 -0.32333374 3.0198975c-0.2109375 0.97224426 -0.59161377 1.7702179 -1.1419373 2.393921c-0.54574585 0.6191101 -1.3552094 0.92866516 -2.42836 0.92866516c-1.0410461 0 -1.8505096 -0.30955505 -2.42836 -0.92866516c-0.57785034 -0.623703 -0.9722595 -1.4216766 -1.1832275 -2.393921c-0.21096802 -0.972229 -0.31643677 -1.9788666 -0.31643677 -3.0198975l0 -14.838089c0 -1.0960541 0.098587036 -2.1302032 0.29580688 -3.1024475c0.19720459 -0.972229 0.57785034 -1.7541504 1.1419373 -2.345749c0.5641022 -0.5915985 1.3941956 -0.8874054 2.4902802 -0.8874054zm0 -3.6802826c-1.9720459 0 -3.5863647 0.4242096 -4.842972 1.2726288c-1.2520142 0.8438263 -2.1738281 2.0201416 -2.765442 3.528946c-0.59161377 1.5042114 -0.88742065 3.258377 -0.88742065 5.2624664l0 14.748657c0 1.9444885 0.3026886 3.6779938 0.9080658 5.2005615c0.60995483 1.5179749 1.5409393 2.7149353 2.7929535 3.590866c1.2520142 0.8713379 2.850296 1.3070068 4.794815 1.3070068c1.944519 0 3.535904 -0.42878723 4.774185 -1.286377c1.2428284 -0.8575897 2.1669312 -2.0476532 2.7723083 -3.570221c0.6053772 -1.5225677 0.90805054 -3.2698364 0.90805054 -5.2418365l0 -14.748657c0 -2.0040894 -0.29580688 -3.758255 -0.88742065 -5.2624664c-0.59161377 -1.5088043 -1.5088196 -2.6851196 -2.7516785 -3.528946c-1.2382507 -0.8484192 -2.843399 -1.2726288 -4.815445 -1.2726288z" fill-rule="evenodd"/><path stroke="#000000" stroke-width="1.0" stroke-linejoin="round" stroke-linecap="butt" d="m274.7285 173.03415c-2.0316772 0 -3.6597595 0.41044617 -4.884247 1.2313538c-1.2244873 0.8163147 -2.111908 1.9651031 -2.662262 3.4463959c-0.5503235 1.4766998 -0.8255005 3.2423248 -0.8255005 5.2968597l0 1.183197l4.52652 0l0 -1.141922c0 -1.0960541 0.11236572 -2.1233215 0.33709717 -3.0818024c0.22470093 -0.95848083 0.63287354 -1.7335205 1.2244873 -2.325119c0.59161377 -0.5915985 1.4216919 -0.8874054 2.490265 -0.8874054c1.2703552 0 2.1577759 0.45173645 2.662262 1.3551788c0.5090637 0.89886475 0.7635803 2.137085 0.7635803 3.714676c0 1.27034 -0.17654419 2.3916168 -0.5296936 3.363861c-0.3531189 0.972229 -0.8048706 1.8963165 -1.3551941 2.7722473c-0.54574585 0.87135315 -1.1419373 1.8137817 -1.7886047 2.8272858l-8.709076 13.565475l0 3.2125092l16.145508 0l0 -3.8041077l-10.820984 0l7.862915 -12.003937c0.6741638 -1.013504 1.2933044 -1.9994965 1.8573914 -2.9579773c0.56411743 -0.95848083 1.0227051 -1.9857483 1.3758545 -3.0818176c0.3531189 -1.100647 0.5296936 -2.384735 0.5296936 -3.8522644c0 -2.760788 -0.67645264 -4.9230957 -2.029358 -6.4869385c-1.3529053 -1.5638275 -3.40979 -2.345749 -6.1706543 -2.345749z" fill-rule="evenodd"/><path stroke="#000000" stroke-width="1.0" stroke-linejoin="round" stroke-linecap="butt" d="m294.54633 173.03415c-1.8573914 0 -3.4143677 0.3531189 -4.67099 1.059372c-1.2520142 0.70625305 -2.1875916 1.7082977 -2.8067017 3.0061493c-0.6191406 1.2932587 -0.92871094 2.8547974 -0.92871094 4.684616l0 1.141922l4.478363 0c0 -0.11463928 0 -0.23388672 0 -0.3577118c0 -0.12840271 0 -0.24763489 0 -0.35769653c0.05505371 -1.6096954 0.33480835 -2.9281921 0.8392639 -3.9554596c0.5090637 -1.0272675 1.5386658 -1.5409088 3.0887756 -1.5409088c1.5501099 0 2.5865784 0.46548462 3.1094055 1.3964539c0.52282715 0.92637634 0.7842407 2.1645966 0.7842407 3.714676c0 1.8344116 -0.3531494 3.1460266 -1.0594177 3.9348145c-0.7062683 0.7888031 -1.861969 1.2107086 -3.467102 1.2657471l-0.59161377 0l0 4.5195312l0.31643677 0c0.12841797 0 0.23388672 0.016052246 0.31643677 0.04815674c1.6647644 0.110061646 2.827362 0.73605347 3.4877625 1.8779755c0.664978 1.141922 0.99749756 2.614029 0.99749756 4.416336c0 1.2382355 -0.098602295 2.3365784 -0.29580688 3.2950592c-0.19720459 0.95848083 -0.57785034 1.6991272 -1.1419678 2.221939c-0.5640869 0.518219 -1.3964844 0.7773285 -2.4971619 0.7773285c-1.0410461 0 -1.836731 -0.23846436 -2.387085 -0.7154236c-0.5503235 -0.47694397 -0.93096924 -1.1235657 -1.1419373 -1.9398804c-0.21096802 -0.8209076 -0.3302002 -1.7381134 -0.35772705 -2.7516174c0 -0.14216614 0 -0.27516174 0 -0.39898682c0 -0.12840271 0 -0.24993896 0 -0.3645935l-4.478363 0l0 1.141922c0 1.8069 0.3095703 3.3730164 0.92871094 4.698395c0.6191101 1.3207703 1.547821 2.3342896 2.7860718 3.0405273c1.2428284 0.70166016 2.7929688 1.0524902 4.6503296 1.0524902c2.0316772 0 3.666626 -0.41503906 4.904907 -1.2451019c1.2382507 -0.83006287 2.1394348 -1.9995117 2.7035217 -3.508316c0.5640869 -1.5088043 0.8461304 -3.2767181 0.8461304 -5.3037415c0 -1.5500793 -0.19720459 -2.9098358 -0.59161377 -4.0792694c-0.39440918 -1.1694336 -0.95162964 -2.1347961 -1.6716309 -2.8960724c-0.7154541 -0.76127625 -1.5959778 -1.2955475 -2.641632 -1.6028137c1.4950867 -0.45402527 2.6851807 -1.3001404 3.5703125 -2.5383759c0.8897095 -1.2382202 1.3345642 -2.8869019 1.3345642 -4.9460297c0 -1.8298187 -0.3095703 -3.3982391 -0.9286804 -4.705261c-0.6191406 -1.3115997 -1.5501099 -2.3205261 -2.7929688 -3.0267792c-1.2382507 -0.70625305 -2.802124 -1.059372 -4.69162 -1.059372z" fill-rule="evenodd"/><path stroke="#000000" stroke-width="1.0" stroke-linejoin="round" stroke-linecap="butt" d="m306.30075 193.57497l0 3.425766l9.4244995 0l0 -3.425766z" fill-rule="evenodd"/><path stroke="#000000" stroke-width="1.0" stroke-linejoin="round" stroke-linecap="butt" d="m327.89893 173.03415c-2.0316467 0 -3.659729 0.41044617 -4.884247 1.2313538c-1.2244873 0.8163147 -2.111908 1.9651031 -2.6622314 3.4463959c-0.550354 1.4766998 -0.825531 3.2423248 -0.825531 5.2968597l0 1.183197l4.52652 0l0 -1.141922c0 -1.0960541 0.11236572 -2.1233215 0.33709717 -3.0818024c0.22473145 -0.95848083 0.63287354 -1.7335205 1.2244873 -2.325119c0.59161377 -0.5915985 1.4217224 -0.8874054 2.4902954 -0.8874054c1.2703552 0 2.1577759 0.45173645 2.6622314 1.3551788c0.5090637 0.89886475 0.76361084 2.137085 0.76361084 3.714676c0 1.27034 -0.1765747 2.3916168 -0.5296936 3.363861c-0.3531494 0.972229 -0.8048706 1.8963165 -1.3552246 2.7722473c-0.54574585 0.87135315 -1.1419373 1.8137817 -1.7885742 2.8272858l-8.709106 13.565475l0 3.2125092l16.145538 0l0 -3.8041077l-10.821014 0l7.8629456 -12.003937c0.6741638 -1.013504 1.2932739 -1.9994965 1.8573914 -2.9579773c0.5640869 -0.95848083 1.0227051 -1.9857483 1.375824 -3.0818176c0.3531494 -1.100647 0.5296936 -2.384735 0.5296936 -3.8522644c0 -2.760788 -0.67645264 -4.9230957 -2.029358 -6.4869385c-1.3529053 -1.5638275 -3.40979 -2.345749 -6.1706543 -2.345749z" fill-rule="evenodd"/><path stroke="#000000" stroke-width="1.0" stroke-linejoin="round" stroke-linecap="butt" d="m348.56293 176.71443c1.1006775 0 1.926178 0.29580688 2.476532 0.8874054c0.5503235 0.5915985 0.9241028 1.3735199 1.1213074 2.345749c0.19720459 0.97224426 0.29580688 2.0063934 0.29580688 3.1024475l0 14.838089c0 1.0410309 -0.107788086 2.0476685 -0.32333374 3.0198975c-0.21096802 0.97224426 -0.59161377 1.7702179 -1.1419373 2.393921c-0.54577637 0.6191101 -1.3552246 0.92866516 -2.4283752 0.92866516c-1.0410461 0 -1.8504944 -0.30955505 -2.4283752 -0.92866516c-0.57785034 -0.623703 -0.9722595 -1.4216766 -1.183197 -2.393921c-0.21096802 -0.972229 -0.3164673 -1.9788666 -0.3164673 -3.0198975l0 -14.838089c0 -1.0960541 0.098602295 -2.1302032 0.29580688 -3.1024475c0.19720459 -0.972229 0.57785034 -1.7541504 1.1419678 -2.345749c0.5640869 -0.5915985 1.394165 -0.8874054 2.490265 -0.8874054zm0 -3.6802826c-1.9720459 0 -3.5863647 0.4242096 -4.8429565 1.2726288c-1.2520142 0.8438263 -2.1738281 2.0201416 -2.765442 3.528946c-0.59161377 1.5042114 -0.88742065 3.258377 -0.88742065 5.2624664l0 14.748657c0 1.9444885 0.30267334 3.6779938 0.90805054 5.2005615c0.60995483 1.5179749 1.5409546 2.7149353 2.7929688 3.590866c1.2520142 0.8713379 2.8502808 1.3070068 4.7948 1.3070068c1.944519 0 3.5359192 -0.42878723 4.77417 -1.286377c1.2428589 -0.8575897 2.1669617 -2.0476532 2.7723389 -3.570221c0.6053467 -1.5225677 0.90805054 -3.2698364 0.90805054 -5.2418365l0 -14.748657c0 -2.0040894 -0.29580688 -3.758255 -0.88742065 -5.2624664c-0.59161377 -1.5088043 -1.5088501 -2.6851196 -2.7516785 -3.528946c-1.2382812 -0.8484192 -2.8434143 -1.2726288 -4.81546 -1.2726288z" fill-rule="evenodd"/><path stroke="#000000" stroke-width="1.0" stroke-linejoin="round" stroke-linecap="butt" d="m369.95346 173.03415c-2.0316467 0 -3.659729 0.41044617 -4.884247 1.2313538c-1.2244873 0.8163147 -2.111908 1.9651031 -2.6622314 3.4463959c-0.550354 1.4766998 -0.825531 3.2423248 -0.825531 5.2968597l0 1.183197l4.52652 0l0 -1.141922c0 -1.0960541 0.11236572 -2.1233215 0.33709717 -3.0818024c0.22473145 -0.95848083 0.63287354 -1.7335205 1.2244873 -2.325119c0.59161377 -0.5915985 1.4217224 -0.8874054 2.4902954 -0.8874054c1.2703552 0 2.1577759 0.45173645 2.6622314 1.3551788c0.5090637 0.89886475 0.76361084 2.137085 0.76361084 3.714676c0 1.27034 -0.1765747 2.3916168 -0.5296936 3.363861c-0.3531494 0.972229 -0.8048706 1.8963165 -1.3552246 2.7722473c-0.54574585 0.87135315 -1.1419373 1.8137817 -1.7885742 2.8272858l-8.709106 13.565475l0 3.2125092l16.145508 0l0 -3.8041077l-10.820984 0l7.8629456 -12.003937c0.6741638 -1.013504 1.2932739 -1.9994965 1.8573914 -2.9579773c0.5640869 -0.95848083 1.0227051 -1.9857483 1.375824 -3.0818176c0.3531494 -1.100647 0.5296936 -2.384735 0.5296936 -3.8522644c0 -2.760788 -0.67645264 -4.9230957 -2.029358 -6.4869385c-1.3529053 -1.5638275 -3.40979 -2.345749 -6.1706543 -2.345749z" fill-rule="evenodd"/><path stroke="#000000" stroke-width="1.0" stroke-linejoin="round" stroke-linecap="butt" d="m391.00266 178.82631l0 15.553513l-5.5790405 0l5.5790405 -15.553513zm-1.0181274 -5.496353l-8.915466 20.334442l0 4.732773l9.933594 0l0 9.169769l4.306366 0l0 -9.169769l3.8454895 0l0 -4.0173492l-3.8454895 0l0 -21.049866z" fill-rule="evenodd"/><path fill="#ffffff" d="m77.82097 83.55233c2.6766434 0 4.8869934 0.62979126 6.63105 1.8893661c1.7440567 1.2595749 2.9007034 3.0823288 3.4699478 5.4682617c0.5692444 2.3859253 0.52080536 5.1412506 -0.14533997 8.265968c-0.67824554 3.1973877 -1.8046112 5.970871 -3.3791046 8.320473c-1.5744934 2.3374786 -3.5123367 4.178398 -5.81353 5.5227585c-2.2890778 1.3322449 -4.7719345 1.9983673 -7.448578 1.9983673c-2.7493134 0 -4.989952 -0.66612244 -6.7218857 -1.9983673c-1.7198334 -1.3443604 -2.8885994 -3.1852798 -3.5062866 -5.5227585c-0.6176872 -2.3496017 -0.58741 -5.123085 0.09083557 -8.320473c0.66613007 -3.1247177 1.810669 -5.880043 3.4336166 -8.265968c1.6229401 -2.385933 3.5728989 -4.208679 5.849861 -5.4682617c2.2769623 -1.2595749 4.7901077 -1.8893661 7.5394135 -1.8893661zm-22.99976 -37.296783l-17.531414 82.49621l16.641216 0l1.8022842 -6.307892l0 0c0.88518524 1.3102646 2.0224228 2.4863815 3.4117203 3.5283432c1.7077255 1.2595749 3.712185 2.2587662 6.0133705 2.997551c2.301178 0.75090027 4.7901 1.1263428 7.4667435 1.1263428c4.989937 0 9.731598 -1.3201294 14.224968 -3.9603958c4.5054855 -2.6523743 8.387222 -6.303932 11.645218 -10.954681c3.270111 -4.6507416 5.5410156 -9.985771 6.812729 -16.005096c1.2717056 -5.958763 1.2474823 -11.263519 -0.07266998 -15.914261c-1.3201523 -4.650749 -3.6879578 -8.296257 -7.103401 -10.936516c-3.4154434 -2.6402664 -7.690811 -3.9604034 -12.826088 -3.9604034c-2.458641 0 -4.923332 0.37545776 -7.394081 1.1263504c-2.458641 0.7387924 -4.796158 1.7621994 -7.0125656 3.070221c-1.6059723 0.93899536 -3.05616 1.9765549 -4.3505554 3.112671l0 0l6.239952 -29.418442z" fill-rule="evenodd"/><path fill="#ffffff" d="m146.63403 83.31616c2.0831757 0 3.8514557 0.41178894 5.30484 1.2353516c1.4654999 0.8114624 2.5434265 1.9438705 3.23378 3.3972244c0.7024689 1.4533615 0.93258667 3.1126099 0.6903534 4.9777527l-0.023040771 0.10900116l-24.360764 0c0.4814453 -1.0721664 1.0336304 -2.0592346 1.6565552 -2.9612198c1.5139313 -2.1921463 3.4154358 -3.8635101 5.7045135 -5.014084c2.2890778 -1.1626816 4.8869934 -1.7440262 7.793762 -1.7440262zm2.961258 -14.951416c-4.396469 0 -8.599167 0.76301575 -12.608078 2.2890396c-4.008911 1.5260239 -7.6484222 3.6878967 -10.918526 6.485611c-3.270111 2.7855988 -6.0557556 6.073822 -8.356941 9.864662c-2.2890778 3.7908401 -3.9180756 7.9571304 -4.8869934 12.498871c-1.2474823 5.886101 -1.0173721 11.118187 0.6903534 15.696259c1.7077255 4.5659714 4.6992645 8.16909 8.974632 10.809349c4.27536 2.6402664 9.689201 3.9603958 16.241539 3.9603958c2.6766357 0 5.4380646 -0.31489563 8.284271 -0.94467163c2.8462067 -0.62979126 5.7045135 -1.5744781 8.574951 -2.834053c2.8825378 -1.2716904 5.6924133 -2.9127731 8.429611 -4.9232483l-5.8680267 -11.826698c-2.676651 1.780365 -5.08078 3.04599 -7.2124023 3.796898c-2.1316376 0.7387848 -4.463089 1.1081848 -6.9944 1.1081848c-3.6455688 0 -6.649231 -0.66612244 -9.010971 -1.9983673c-2.3496246 -1.3443527 -3.9604645 -3.221611 -4.832489 -5.6317596c-0.39736938 -1.1193161 -0.6292114 -2.3304443 -0.6955414 -3.6333923l40.718033 0l1.1263733 -4.7960815c1.0658112 -4.323738 1.3140869 -8.308357 0.7448578 -11.953865c-0.5571289 -3.6455078 -1.8167267 -6.8065567 -3.7787933 -9.483154c-1.9620667 -2.6765976 -4.5175934 -4.7597504 -7.6665955 -6.2494354c-3.1368713 -1.4896927 -6.788498 -2.2345428 -10.9548645 -2.2345428z" fill-rule="evenodd"/><path fill="#ffffff" d="m227.27306 76.77512l0 0c0 0 0 0 0 0l0 0l0 0zm-14.684891 6.6500397c2.7493134 0 4.9899445 0.6540146 6.7218933 1.9620361c1.7319489 1.2959061 2.900711 3.11866 3.5062866 5.468254c0.6176758 2.349594 0.58740234 5.123085 -0.09083557 8.320473c-0.6782532 3.1973877 -1.8227844 5.970871 -3.4336243 8.320473c-1.6108246 2.3374786 -3.554718 4.142067 -5.8316956 5.4137573c-2.2769623 1.2595749 -4.7901 1.8893585 -7.5394135 1.8893585c-2.6766357 0 -4.86882 -0.62978363 -6.5765533 -1.8893585c-1.7077179 -1.2716904 -2.8704224 -3.0762787 -3.4881134 -5.4137573c-0.6176758 -2.3496017 -0.58740234 -5.123085 0.09083557 -8.320473c0.6782532 -3.1973877 1.8227844 -5.9708786 3.4336243 -8.320473c1.6229401 -2.349594 3.5607758 -4.1723404 5.8135223 -5.468254c2.2527466 -1.3080215 4.7174377 -1.9620361 7.3940735 -1.9620361zm-1.1627045 -15.060417c-5.1352844 0 -9.991989 1.320137 -14.570145 3.9604034c-4.5781555 2.6402588 -8.514389 6.267601 -11.808731 10.882011c-3.2822113 4.6144104 -5.5652313 9.937332 -6.84906 15.968765c-1.2474823 5.8739853 -1.2111511 11.136353 0.10900879 15.787094c1.3201599 4.6507416 3.6516266 8.296249 6.9944 10.936516c3.3427734 2.640274 7.5030823 3.9604034 12.480911 3.9604034c2.6887512 0 5.310898 -0.4057312 7.8664246 -1.2171936c2.5555267 -0.82357025 4.9475555 -1.9378128 7.176071 -3.34272c1.6484222 -1.0424957 3.159195 -2.206276 4.5322876 -3.4913254l0 0l-1.498352 7.0520477l18.094604 0l12.589905 -59.260643l-17.74942 0l-1.5203094 7.1750183l0 0c-0.7736664 -1.3935242 -1.7323914 -2.6527863 -2.8761597 -3.7778015c-1.4776154 -1.4533539 -3.3003998 -2.585762 -5.4683533 -3.3972168c-2.1679535 -0.82357025 -4.668991 -1.2353592 -7.5030823 -1.2353592zm70.886765 0c-3.0520935 0 -6.1042175 0.42995453 -9.156311 1.289856c-3.039978 0.8477936 -5.837738 2.0952606 -8.39328 3.7423935c-2.543396 1.6350327 -4.7053223 3.56678 -6.485718 5.795265c-1.76828 2.228485 -2.9430847 4.7234116 -3.5244446 7.4847946c-0.50868225 2.3738174 -0.5571289 4.511467 -0.1453247 6.4129333c0.41178894 1.9014816 1.1990356 3.6334 2.3617249 5.195755c1.283844 1.635025 3.0763245 3.0641632 5.377533 4.287407c2.3132935 1.2232437 5.123169 2.2829895 8.429596 3.1792145c2.325409 0.66612244 4.20874 1.2656326 5.6500244 1.7985306c1.4533691 0.5207825 2.4768066 0.9628525 3.070282 1.3261948c1.1626892 0.82357025 1.5866089 1.9801941 1.271698 3.4698868c-0.15744019 0.7387848 -0.44207764 1.3867416 -0.8538513 1.9438629c-0.4118042 0.5571213 -0.94470215 1.0415726 -1.5987244 1.4533615c-0.6540222 0.4117813 -1.4170532 0.73272705 -2.289093 0.96284485c-0.8599243 0.21800995 -1.810669 0.3270111 -2.8522644 0.3270111c-2.6039734 0 -5.2442627 -0.5389557 -7.920929 -1.6168594c-2.6645203 -1.0779114 -4.8990784 -2.7734985 -6.703705 -5.086754l-12.826096 9.374153c1.937851 3.1247177 4.92334 5.619652 8.956467 7.4847946c4.033142 1.8530273 8.950409 2.779541 14.751831 2.779541c4.7598267 0 9.180511 -0.8356781 13.262085 -2.507042c4.0815735 -1.6713562 7.490967 -3.9725037 10.22818 -6.9034424c2.7493286 -2.9430542 4.5296936 -6.3160477 5.3411865 -10.119003c0.41177368 -1.9378052 0.4965515 -3.7423935 0.2543335 -5.4137573c-0.24224854 -1.6713562 -0.8296509 -3.1368256 -1.7622375 -4.396408c-1.1384583 -1.6471329 -2.8461914 -3.0641556 -5.123169 -4.251068c-2.2648315 -1.1869049 -5.0444336 -2.2648087 -8.338776 -3.2337189c-2.6645203 -0.82357025 -4.7537537 -1.513916 -6.2677 -2.0710373c-1.5139465 -0.5571213 -2.591858 -1.0597382 -3.2337646 -1.5078583c-0.6540222 -0.44812012 -1.1142578 -1.0052414 -1.3807068 -1.6713562c-0.2664795 -0.66612244 -0.32095337 -1.3746414 -0.16351318 -2.125534c0.15744019 -0.7387924 0.44207764 -1.3867493 0.8538513 -1.9438705c0.42391968 -0.5571213 0.9749756 -1.0415726 1.6532288 -1.4533539c0.6782532 -0.41178894 1.4654846 -0.70851135 2.3617554 -0.8901825c0.89624023 -0.18167114 1.9014893 -0.2725067 3.015747 -0.2725067c1.4897156 0 3.064209 0.29673004 4.7235107 0.8901825c1.6592712 0.59345245 3.2156067 1.3927994 4.668976 2.3980408c1.4654846 1.0052338 2.7311401 2.137642 3.7969666 3.3972244l11.608887 -10.482346c-1.5987244 -1.8651428 -3.542633 -3.4638367 -5.8316956 -4.796074c-2.2769775 -1.3443604 -4.8264465 -2.385933 -7.6484375 -3.1247253c-2.8219604 -0.75089264 -5.8680115 -1.1263504 -9.138123 -1.1263504z" fill-rule="evenodd"/><path fill="#ffffff" d="m325.62805 54.63052l-3.1800842 14.969585l-10.499878 0l-3.306427 15.623589l10.487274 0l-9.270081 43.637054l17.858429 0l9.270081 -43.637054l11.495087 0l3.3064575 -15.623589l-11.482513 0l3.1800842 -14.969585zm34.069275 55.481922c-2.8219604 0 -5.322998 0.9325714 -7.5030823 2.7977142c-2.1800842 1.8530273 -3.5849915 4.2692337 -4.214813 7.248619c-0.67822266 3.1973877 -0.3633423 5.655983 0.94470215 7.375786c1.3201599 1.7077026 3.5002441 2.5615387 6.540222 2.5615387c2.9067688 0 5.450165 -0.9325714 7.630249 -2.7977066c2.1800842 -1.8651428 3.578949 -4.2450104 4.1966553 -7.139618c0.67822266 -3.1973877 0.3451538 -5.6680984 -0.99920654 -7.4121246c-1.3443909 -1.756134 -3.542633 -2.6342087 -6.5947266 -2.6342087z" fill-rule="evenodd"/><path stroke="#ffffff" stroke-width="1.0" stroke-linejoin="round" stroke-linecap="butt" d="m77.82097 83.55233c2.6766434 0 4.8869934 0.62979126 6.63105 1.8893661c1.7440567 1.2595749 2.9007034 3.0823288 3.4699478 5.4682617c0.5692444 2.3859253 0.52080536 5.1412506 -0.14533997 8.265968c-0.67824554 3.1973877 -1.8046112 5.970871 -3.3791046 8.320473c-1.5744934 2.3374786 -3.5123367 4.178398 -5.81353 5.5227585c-2.2890778 1.3322449 -4.7719345 1.9983673 -7.448578 1.9983673c-2.7493134 0 -4.989952 -0.66612244 -6.7218857 -1.9983673c-1.7198334 -1.3443604 -2.8885994 -3.1852798 -3.5062866 -5.5227585c-0.6176872 -2.3496017 -0.58741 -5.123085 0.09083557 -8.320473c0.66613007 -3.1247177 1.810669 -5.880043 3.4336166 -8.265968c1.6229401 -2.385933 3.5728989 -4.208679 5.849861 -5.4682617c2.2769623 -1.2595749 4.7901077 -1.8893661 7.5394135 -1.8893661zm-22.99976 -37.296783l-17.531414 82.49621l16.641216 0l1.8022842 -6.307892l0 0c0.88518524 1.3102646 2.0224228 2.4863815 3.4117203 3.5283432c1.7077255 1.2595749 3.712185 2.2587662 6.0133705 2.997551c2.301178 0.75090027 4.7901 1.1263428 7.4667435 1.1263428c4.989937 0 9.731598 -1.3201294 14.224968 -3.9603958c4.5054855 -2.6523743 8.387222 -6.303932 11.645218 -10.954681c3.270111 -4.6507416 5.5410156 -9.985771 6.812729 -16.005096c1.2717056 -5.958763 1.2474823 -11.263519 -0.07266998 -15.914261c-1.3201523 -4.650749 -3.6879578 -8.296257 -7.103401 -10.936516c-3.4154434 -2.6402664 -7.690811 -3.9604034 -12.826088 -3.9604034c-2.458641 0 -4.923332 0.37545776 -7.394081 1.1263504c-2.458641 0.7387924 -4.796158 1.7621994 -7.0125656 3.070221c-1.6059723 0.93899536 -3.05616 1.9765549 -4.3505554 3.112671l0 0l6.239952 -29.418442z" fill-rule="evenodd"/><path stroke="#ffffff" stroke-width="1.0" stroke-linejoin="round" stroke-linecap="butt" d="m146.63403 83.31616c2.0831757 0 3.8514557 0.41178894 5.30484 1.2353516c1.4654999 0.8114624 2.5434265 1.9438705 3.23378 3.3972244c0.7024689 1.4533615 0.93258667 3.1126099 0.6903534 4.9777527l-0.023040771 0.10900116l-24.360764 0c0.4814453 -1.0721664 1.0336304 -2.0592346 1.6565552 -2.9612198c1.5139313 -2.1921463 3.4154358 -3.8635101 5.7045135 -5.014084c2.2890778 -1.1626816 4.8869934 -1.7440262 7.793762 -1.7440262zm2.961258 -14.951416c-4.396469 0 -8.599167 0.76301575 -12.608078 2.2890396c-4.008911 1.5260239 -7.6484222 3.6878967 -10.918526 6.485611c-3.270111 2.7855988 -6.0557556 6.073822 -8.356941 9.864662c-2.2890778 3.7908401 -3.9180756 7.9571304 -4.8869934 12.498871c-1.2474823 5.886101 -1.0173721 11.118187 0.6903534 15.696259c1.7077255 4.5659714 4.6992645 8.16909 8.974632 10.809349c4.27536 2.6402664 9.689201 3.9603958 16.241539 3.9603958c2.6766357 0 5.4380646 -0.31489563 8.284271 -0.94467163c2.8462067 -0.62979126 5.7045135 -1.5744781 8.574951 -2.834053c2.8825378 -1.2716904 5.6924133 -2.9127731 8.429611 -4.9232483l-5.8680267 -11.826698c-2.676651 1.780365 -5.08078 3.04599 -7.2124023 3.796898c-2.1316376 0.7387848 -4.463089 1.1081848 -6.9944 1.1081848c-3.6455688 0 -6.649231 -0.66612244 -9.010971 -1.9983673c-2.3496246 -1.3443527 -3.9604645 -3.221611 -4.832489 -5.6317596c-0.39736938 -1.1193161 -0.6292114 -2.3304443 -0.6955414 -3.6333923l40.718033 0l1.1263733 -4.7960815c1.0658112 -4.323738 1.3140869 -8.308357 0.7448578 -11.953865c-0.5571289 -3.6455078 -1.8167267 -6.8065567 -3.7787933 -9.483154c-1.9620667 -2.6765976 -4.5175934 -4.7597504 -7.6665955 -6.2494354c-3.1368713 -1.4896927 -6.788498 -2.2345428 -10.9548645 -2.2345428z" fill-rule="evenodd"/><path stroke="#ffffff" stroke-width="1.0" stroke-linejoin="round" stroke-linecap="butt" d="m227.27306 76.77512l0 0c0 0 0 0 0 0l0 0l0 0zm-14.684891 6.6500397c2.7493134 0 4.9899445 0.6540146 6.7218933 1.9620361c1.7319489 1.2959061 2.900711 3.11866 3.5062866 5.468254c0.6176758 2.349594 0.58740234 5.123085 -0.09083557 8.320473c-0.6782532 3.1973877 -1.8227844 5.970871 -3.4336243 8.320473c-1.6108246 2.3374786 -3.554718 4.142067 -5.8316956 5.4137573c-2.2769623 1.2595749 -4.7901 1.8893585 -7.5394135 1.8893585c-2.6766357 0 -4.86882 -0.62978363 -6.5765533 -1.8893585c-1.7077179 -1.2716904 -2.8704224 -3.0762787 -3.4881134 -5.4137573c-0.6176758 -2.3496017 -0.58740234 -5.123085 0.09083557 -8.320473c0.6782532 -3.1973877 1.8227844 -5.9708786 3.4336243 -8.320473c1.6229401 -2.349594 3.5607758 -4.1723404 5.8135223 -5.468254c2.2527466 -1.3080215 4.7174377 -1.9620361 7.3940735 -1.9620361zm-1.1627045 -15.060417c-5.1352844 0 -9.991989 1.320137 -14.570145 3.9604034c-4.5781555 2.6402588 -8.514389 6.267601 -11.808731 10.882011c-3.2822113 4.6144104 -5.5652313 9.937332 -6.84906 15.968765c-1.2474823 5.8739853 -1.2111511 11.136353 0.10900879 15.787094c1.3201599 4.6507416 3.6516266 8.296249 6.9944 10.936516c3.3427734 2.640274 7.5030823 3.9604034 12.480911 3.9604034c2.6887512 0 5.310898 -0.4057312 7.8664246 -1.2171936c2.5555267 -0.82357025 4.9475555 -1.9378128 7.176071 -3.34272c1.6484222 -1.0424957 3.159195 -2.206276 4.5322876 -3.4913254l0 0l-1.498352 7.0520477l18.094604 0l12.589905 -59.260643l-17.74942 0l-1.5203094 7.1750183l0 0c-0.7736664 -1.3935242 -1.7323914 -2.6527863 -2.8761597 -3.7778015c-1.4776154 -1.4533539 -3.3003998 -2.585762 -5.4683533 -3.3972168c-2.1679535 -0.82357025 -4.668991 -1.2353592 -7.5030823 -1.2353592zm70.886765 0c-3.0520935 0 -6.1042175 0.42995453 -9.156311 1.289856c-3.039978 0.8477936 -5.837738 2.0952606 -8.39328 3.7423935c-2.543396 1.6350327 -4.7053223 3.56678 -6.485718 5.795265c-1.76828 2.228485 -2.9430847 4.7234116 -3.5244446 7.4847946c-0.50868225 2.3738174 -0.5571289 4.511467 -0.1453247 6.4129333c0.41178894 1.9014816 1.1990356 3.6334 2.3617249 5.195755c1.283844 1.635025 3.0763245 3.0641632 5.377533 4.287407c2.3132935 1.2232437 5.123169 2.2829895 8.429596 3.1792145c2.325409 0.66612244 4.20874 1.2656326 5.6500244 1.7985306c1.4533691 0.5207825 2.4768066 0.9628525 3.070282 1.3261948c1.1626892 0.82357025 1.5866089 1.9801941 1.271698 3.4698868c-0.15744019 0.7387848 -0.44207764 1.3867416 -0.8538513 1.9438629c-0.4118042 0.5571213 -0.94470215 1.0415726 -1.5987244 1.4533615c-0.6540222 0.4117813 -1.4170532 0.73272705 -2.289093 0.96284485c-0.8599243 0.21800995 -1.810669 0.3270111 -2.8522644 0.3270111c-2.6039734 0 -5.2442627 -0.5389557 -7.920929 -1.6168594c-2.6645203 -1.0779114 -4.8990784 -2.7734985 -6.703705 -5.086754l-12.826096 9.374153c1.937851 3.1247177 4.92334 5.619652 8.956467 7.4847946c4.033142 1.8530273 8.950409 2.779541 14.751831 2.779541c4.7598267 0 9.180511 -0.8356781 13.262085 -2.507042c4.0815735 -1.6713562 7.490967 -3.9725037 10.22818 -6.9034424c2.7493286 -2.9430542 4.5296936 -6.3160477 5.3411865 -10.119003c0.41177368 -1.9378052 0.4965515 -3.7423935 0.2543335 -5.4137573c-0.24224854 -1.6713562 -0.8296509 -3.1368256 -1.7622375 -4.396408c-1.1384583 -1.6471329 -2.8461914 -3.0641556 -5.123169 -4.251068c-2.2648315 -1.1869049 -5.0444336 -2.2648087 -8.338776 -3.2337189c-2.6645203 -0.82357025 -4.7537537 -1.513916 -6.2677 -2.0710373c-1.5139465 -0.5571213 -2.591858 -1.0597382 -3.2337646 -1.5078583c-0.6540222 -0.44812012 -1.1142578 -1.0052414 -1.3807068 -1.6713562c-0.2664795 -0.66612244 -0.32095337 -1.3746414 -0.16351318 -2.125534c0.15744019 -0.7387924 0.44207764 -1.3867493 0.8538513 -1.9438705c0.42391968 -0.5571213 0.9749756 -1.0415726 1.6532288 -1.4533539c0.6782532 -0.41178894 1.4654846 -0.70851135 2.3617554 -0.8901825c0.89624023 -0.18167114 1.9014893 -0.2725067 3.015747 -0.2725067c1.4897156 0 3.064209 0.29673004 4.7235107 0.8901825c1.6592712 0.59345245 3.2156067 1.3927994 4.668976 2.3980408c1.4654846 1.0052338 2.7311401 2.137642 3.7969666 3.3972244l11.608887 -10.482346c-1.5987244 -1.8651428 -3.542633 -3.4638367 -5.8316956 -4.796074c-2.2769775 -1.3443604 -4.8264465 -2.385933 -7.6484375 -3.1247253c-2.8219604 -0.75089264 -5.8680115 -1.1263504 -9.138123 -1.1263504z" fill-rule="evenodd"/><path stroke="#ffffff" stroke-width="1.0" stroke-linejoin="round" stroke-linecap="butt" d="m325.62805 54.63052l-3.1800842 14.969585l-10.499878 0l-3.306427 15.623589l10.487274 0l-9.270081 43.637054l17.858429 0l9.270081 -43.637054l11.495087 0l3.3064575 -15.623589l-11.482513 0l3.1800842 -14.969585zm34.069275 55.481922c-2.8219604 0 -5.322998 0.9325714 -7.5030823 2.7977142c-2.1800842 1.8530273 -3.5849915 4.2692337 -4.214813 7.248619c-0.67822266 3.1973877 -0.3633423 5.655983 0.94470215 7.375786c1.3201599 1.7077026 3.5002441 2.5615387 6.540222 2.5615387c2.9067688 0 5.450165 -0.9325714 7.630249 -2.7977066c2.1800842 -1.8651428 3.578949 -4.2450104 4.1966553 -7.139618c0.67822266 -3.1973877 0.3451538 -5.6680984 -0.99920654 -7.4121246c-1.3443909 -1.756134 -3.542633 -2.6342087 -6.5947266 -2.6342087z" fill-rule="evenodd"/></g></svg>